<svg xmlns="http://www.w3.org/2000/svg" viewBox="0 0 128 128" width="128" height="128">
  <path fill="#1a1918" d="M63.88 0C28.56 0 .07 28.49 0 63.81L34.42 77.56a20.37 20.37 0 0 1 10.22-3.19q1.01 0 2.01.03l15.31-22.39v-.31c0-13.47 10.86-24.44 24.22-24.44c13.35 0 24.21 10.96 24.21 24.44s-10.86 24.44-24.21 24.44c-.19 0-.37-.01-.55-.01l-21.84 15.71c.01.29.02.58.02.87c0 10.12-8.16 18.35-18.18 18.35c-8.8 0-16.15-6.34-17.81-14.74L2.21 82.4C7.62 109.6 32.37 130 63.88 130c35.47 0 64.19-29.02 64.19-64.76C128.07 29.02 99.35 0 63.88 0M40.23 98.3l-7.89-3.29c1.39 2.94 3.82 5.4 7.03 6.75c6.94 2.92 14.94-.4 17.83-7.41a13.8 13.8 0 0 0 .02-10.54c-1.39-3.4-4.01-6.05-7.37-7.46c-3.34-1.4-6.92-1.35-10.06-.15l8.15 3.4c5.12 2.15 7.54 8.09 5.4 13.25c-2.13 5.17-8.01 7.61-13.13 5.44m61.06-50.22c0-8.97-7.24-16.28-16.13-16.28c-8.9 0-16.14 7.31-16.14 16.28s7.24 16.27 16.14 16.27c8.89 0 16.13-7.3 16.13-16.27m-28.23-.03c0-6.75 5.43-12.23 12.12-12.23c6.69 0 12.12 5.48 12.12 12.23s-5.43 12.23-12.12 12.23c-6.69 0-12.12-5.48-12.12-12.23"/>
</svg>